<?xml version="1.0" standalone="no"?><!DOCTYPE svg PUBLIC "-//W3C//DTD SVG 1.1//EN" "http://www.w3.org/Graphics/SVG/1.1/DTD/svg11.dtd"><svg t="1482918488144" class="icon" style="" viewBox="0 0 1024 1024" version="1.1" xmlns="http://www.w3.org/2000/svg" p-id="4898" xmlns:xlink="http://www.w3.org/1999/xlink" width="32" height="32"><defs><style type="text/css"></style></defs><path d="M450.27328 61.44c248.832 0 450.56 201.728 450.56 450.56 0 33.93536 27.52512 61.44 61.44 61.44 33.93536 0 61.44-27.50464 61.44-61.44 0-282.76736-229.21216-512-512-512-274.98496 0-499.28192 216.80128-511.40608 488.81664C12.36992 250.75712 209.2032 61.44 450.27328 61.44z" p-id="4899" fill="#2c2c2c"></path><path d="M573.7472 962.56c-248.832 0-450.56-201.728-450.56-450.56 0-33.93536-27.52512-61.44-61.44-61.44-33.93536 0-61.44 27.50464-61.44 61.44 0 282.76736 229.21216 512 512 512 274.98496 0 499.28192-216.80128 511.40608-488.81664C1011.65056 773.26336 814.81728 962.56 573.7472 962.56z" p-id="4900" fill="#2c2c2c"></path></svg>